<?xml version="1.0" standalone="no"?>
<!DOCTYPE svg PUBLIC "-//W3C//DTD SVG 20010904//EN"
 "http://www.w3.org/TR/2001/REC-SVG-20010904/DTD/svg10.dtd">
<svg version="1.0" xmlns="http://www.w3.org/2000/svg"
 width="512.000000pt" height="512.000000pt" viewBox="0 0 512.000000 512.000000"
 preserveAspectRatio="xMidYMid meet">

<g transform="translate(0.000000,512.000000) scale(0.100000,-0.100000)"
fill="#000000" stroke="none">
<path d="M1273 5104 c-57 -20 -127 -99 -142 -158 -8 -32 -11 -393 -11 -1264 0
-1218 0 -1219 21 -1246 26 -33 79 -36 109 -6 20 20 20 33 20 1251 l0 1231 29
29 29 29 1221 0 1221 0 0 -422 c0 -272 4 -437 11 -462 14 -51 91 -128 145
-144 30 -9 160 -12 463 -12 l421 0 0 -1861 0 -1861 -29 -29 -29 -29 -1710 0
-1709 0 -27 21 c-17 13 -28 34 -32 60 -11 66 -72 98 -121 64 -51 -36 -35 -138
34 -215 79 -87 -88 -81 1873 -78 l1735 3 46 27 c56 33 106 104 114 162 3 22 5
885 3 1916 l-3 1875 -24 50 c-36 75 -984 1024 -1056 1057 l-50 23 -1255 2
c-1095 1 -1260 0 -1297 -13z m3042 -634 l390 -390 -368 0 -368 0 -24 25 -25
24 0 366 c0 201 1 365 3 365 1 0 178 -175 392 -390z"/>
<path d="M1865 3671 c-83 -21 -146 -82 -170 -165 -13 -45 -15 -125 -13 -553 3
-476 4 -502 22 -522 24 -26 87 -29 107 -4 8 9 16 43 19 77 l5 61 281 3 281 2
6 -61 c6 -74 26 -99 77 -99 51 0 68 22 72 95 l3 60 485 0 485 0 3 -702 2 -702
27 -21 c26 -21 34 -21 347 -18 307 3 323 4 361 25 47 25 85 64 111 113 18 34
19 81 19 1140 l0 1105 -22 40 c-25 47 -64 85 -113 111 -34 18 -84 19 -1200 21
-641 0 -1178 -2 -1195 -6z m535 -306 l0 -165 -285 0 -285 0 0 128 c1 86 5 135
14 151 26 47 44 50 309 51 l247 0 0 -165z m1130 0 l0 -165 -490 0 -490 0 0
158 c0 87 3 162 7 165 3 4 224 7 490 7 l483 0 0 -165z m692 137 c21 -21 23
-32 26 -162 l4 -140 -286 0 -286 0 0 165 0 166 260 -3 c255 -3 260 -3 282 -26z
m-1822 -617 l0 -165 -285 0 -285 0 0 158 c0 87 3 162 7 165 3 4 132 7 285 7
l278 0 0 -165z m1128 -2 l2 -163 -490 0 -490 0 0 158 c0 87 3 162 7 165 3 4
223 6 487 5 l481 -3 3 -162z m722 2 l0 -165 -285 0 -285 0 0 165 0 165 285 0
285 0 0 -165z m-2 -487 l2 -168 -285 0 -285 0 0 170 0 170 283 -2 282 -3 3
-167z m2 -483 l0 -165 -285 0 -285 0 0 165 0 165 285 0 285 0 0 -165z m0 -449
c0 -128 -1 -136 -24 -163 l-24 -28 -261 -3 -261 -3 0 166 0 165 285 0 285 0 0
-134z"/>
<path d="M305 2216 c-51 -22 -97 -68 -121 -121 l-24 -50 0 -681 c0 -764 -2
-739 72 -813 78 -76 -32 -72 1543 -69 l1410 3 40 22 c47 25 85 64 111 113 18
33 19 74 22 705 2 449 -1 686 -8 720 -15 70 -51 119 -113 155 l-52 30 -1425 0
c-1153 -1 -1431 -3 -1455 -14z m2876 -162 l24 -26 0 -675 0 -675 -28 -24 -28
-24 -1390 0 -1391 0 -29 29 -29 29 0 672 0 671 25 24 24 25 1399 0 1399 0 24
-26z"/>
<path d="M1027 1769 c-83 -9 -194 -66 -251 -130 -195 -217 -130 -548 131 -672
64 -30 75 -32 178 -32 96 0 116 3 159 25 74 36 136 99 136 138 0 73 -76 95
-138 41 -50 -44 -92 -59 -162 -59 -103 0 -184 49 -236 142 -25 46 -29 63 -29
128 0 80 17 126 70 188 69 82 212 108 321 58 89 -41 133 -31 149 34 20 81
-162 157 -328 139z"/>
<path d="M1780 1773 c-97 -13 -168 -54 -206 -118 -46 -80 -42 -170 13 -243 28
-37 61 -55 202 -112 123 -49 145 -63 161 -99 26 -64 -39 -121 -136 -121 -66 0
-118 20 -178 69 -21 17 -49 31 -61 31 -33 0 -64 -30 -71 -68 -6 -30 -2 -37 39
-76 70 -67 145 -99 248 -104 116 -6 176 14 240 78 86 86 98 194 33 293 -33 51
-92 86 -237 144 -130 52 -151 70 -129 117 31 69 128 78 235 22 72 -38 94 -39
130 -8 27 24 22 78 -9 107 -35 32 -118 71 -169 80 -70 11 -80 12 -105 8z"/>
<path d="M2283 1765 c-30 -13 -43 -32 -43 -64 0 -10 56 -179 125 -377 87 -250
131 -364 146 -376 30 -25 87 -23 116 4 29 27 267 735 257 764 -20 55 -85 73
-123 35 -11 -11 -57 -133 -104 -276 -47 -141 -87 -259 -90 -261 -2 -2 -44 111
-93 252 -48 141 -96 267 -106 279 -23 29 -48 35 -85 20z"/>
</g>
</svg>
