<?xml version="1.0" standalone="no"?>
<!DOCTYPE svg PUBLIC "-//W3C//DTD SVG 20010904//EN"
 "http://www.w3.org/TR/2001/REC-SVG-20010904/DTD/svg10.dtd">
<svg version="1.0" xmlns="http://www.w3.org/2000/svg"
 width="512.000000pt" height="512.000000pt" viewBox="0 0 512.000000 512.000000"
 preserveAspectRatio="xMidYMid meet">

<g transform="translate(0.000000,512.000000) scale(0.100000,-0.100000)"
fill="#F74850" stroke="none">
<path d="M2355 5024 c-614 -64 -1124 -302 -1541 -718 -381 -382 -616 -850
-701 -1396 -25 -161 -25 -539 0 -700 84 -542 322 -1016 702 -1395 377 -378
854 -618 1390 -701 167 -26 541 -26 705 -1 784 121 1438 575 1817 1262 158
286 262 627 294 965 14 151 6 432 -16 580 -115 757 -561 1407 -1225 1788 -258
148 -553 250 -860 297 -101 16 -476 28 -565 19z m-468 -1444 c15 -6 173 -156
350 -333 l323 -322 327 327 c351 350 358 355 428 328 38 -15 240 -213 261
-257 35 -75 33 -77 -324 -435 l-327 -328 327 -328 c350 -350 355 -357 328
-427 -15 -38 -213 -240 -257 -261 -75 -35 -77 -33 -435 324 l-328 327 -327
-327 c-359 -357 -361 -359 -436 -324 -44 21 -242 223 -257 261 -27 70 -22 77
328 427 l327 328 -327 328 c-357 357 -359 360 -324 434 19 40 208 230 251 252
35 19 54 20 92 6z"/>
</g>
</svg>
